# xmcd
#
# Track frame offsets: 
#        150
#        14223
#        30965
#        47746
#        66270
#        78833
#        97965
#        112668
#
# Disc length: 1807 seconds
#
# Revision: 0
# Processed by: cddbd v1.5.2PL0 Copyright (c) Steve Scherf et al.
# Submitted via: ExactAudioCopyFreeDBPlugin 1.0
#
DISCID=56070d08
DTITLE=Erik Lengowski Trio - No Way Back
DYEAR=2016
DGENRE=Blues
TTITLE0=No Way Back (To You)
TTITLE1=Running Out Of Luck
TTITLE2=Let The Music Set You Free
TTITLE3=Fading With The Dusk
TTITLE4=Diggin' In The Dirt
TTITLE5=Return Of The Runaway
TTITLE6=Into The Fray (Bonus Track)
TTITLE7=Sweet Memories (Bonus Track)
EXTD=
EXTT0=
EXTT1=
EXTT2=
EXTT3=
EXTT4=
EXTT5=
EXTT6=
EXTT7=
PLAYORDER=
